<svg xmlns="http://www.w3.org/2000/svg" version="1.1" xmlns:xlink="http://www.w3.org/1999/xlink" xmlns:svgjs="http://svgjs.dev/svgjs" width="1000" height="623" viewBox="0 0 1000 623"><g transform="matrix(1,0,0,1,-0.6060606060606233,0.2522267206477409)"><svg viewBox="0 0 396 247" data-background-color="#ffffff" preserveAspectRatio="xMidYMid meet" height="623" width="1000" xmlns="http://www.w3.org/2000/svg" xmlns:xlink="http://www.w3.org/1999/xlink"><g id="tight-bounds" transform="matrix(1,0,0,1,0.2400000000000091,-0.09999999999999432)"><svg viewBox="0 0 395.52 247.2" height="247.2" width="395.52"><g><svg></svg></g><g><svg viewBox="0 0 395.52 247.2" height="247.2" width="395.52"><g transform="matrix(1,0,0,1,75.54432000000001,70.68269834428384)"><svg viewBox="0 0 244.43135999999996 105.8346033114323" height="105.8346033114323" width="244.43135999999996"><g><svg viewBox="0 0 244.43135999999996 105.8346033114323" height="105.8346033114323" width="244.43135999999996"><g><svg viewBox="0 0 244.43135999999996 105.8346033114323" height="105.8346033114323" width="244.43135999999996"><g><svg viewBox="0 0 244.43135999999996 105.8346033114323" height="105.8346033114323" width="244.43135999999996"><g id="textblocktransform"><svg viewBox="0 0 244.43135999999996 105.8346033114323" height="105.8346033114323" width="244.43135999999996" id="textblock"><g><svg viewBox="0 0 244.43135999999996 105.8346033114323" height="105.8346033114323" width="244.43135999999996"><g transform="matrix(1,0,0,1,0,0)"><svg width="244.43135999999996" viewBox="1.7 -32.5 76.1 32.95" height="105.8346033114323" data-palette-color="#915eff"><path d="M16.4-32.5Q23.05-32.5 26.65-28.4 30.25-24.3 30.25-16.7L30.25-16.7Q30.25-8.5 26.4-4.03 22.55 0.45 15.45 0.45L15.45 0.45Q8.85 0.45 5.28-3.78 1.7-8 1.7-15.75L1.7-15.75Q1.7-23.8 5.53-28.15 9.35-32.5 16.4-32.5L16.4-32.5ZM16-28.3Q11.45-28.3 9.22-25.38 7-22.45 7-16.35L7-16.35Q7-9.7 9.18-6.63 11.35-3.55 15.9-3.55L15.9-3.55Q20.5-3.55 22.7-6.5 24.9-9.45 24.9-15.7L24.9-15.7Q24.9-22.25 22.73-25.28 20.55-28.3 16-28.3L16-28.3ZM45.6-11.4L45.55-9.2 45.75 0 40.6 0 40.85-9.2 40.8-11.15 30.65-32.1 36.15-32.1 36.8-30.1 43.15-16.65 43.55-16.65 50.6-30 51.4-32.1 56.75-32.1 45.6-11.4ZM70.65-3.8L77.4-4 77.75-3.65 77.34 0 61.3 0 61.5-7.5 61.3-25.05 77.5-25.05 77.8-24.65 77.45-21 71.09-21.25 66.09-21.2 66-14.7 70.8-14.65 75.15-14.8 75.4-14.4 75.09-10.7 70.4-10.85 65.95-10.8 65.9-7.95 66-3.85 70.65-3.8Z" opacity="1" transform="matrix(1,0,0,1,0,0)" fill="#915eff" class="wordmark-text-0" data-fill-palette-color="primary" id="text-0"></path></svg></g></svg></g></svg></g></svg></g></svg></g></svg></g></svg></g><path d="M230.154 64.683L230.154 14.227 11.408 14.227 11.408 232.973 230.154 232.973 230.154 182.517 220.609 182.517 220.609 223.429 20.952 223.429 20.952 23.771 220.609 23.771 220.609 64.683Z" fill="#915eff" stroke="transparent" data-fill-palette-color="primary"></path></svg></g><defs></defs></svg><rect width="395.52" height="247.2" fill="none" stroke="none" visibility="hidden"></rect></g></svg></g></svg>